# xmcd
#
# Track frame offsets:
#	150
#	10473
#	24167
#	35353
#	50629
#	63593
#	73696
#	88657
#	96955
#	105954
#	116508
#	130632
#	147917
#	162056
#	172683
#	184763
#	190454
#	203403
#	226589
#	248743
#
# Disc length: 3426 seconds
#
# Revision: 0
# Processed by: cddbd v1.5PL3 Copyright (c) Steve Scherf et al.
# Submitted via: dBpowerAMP V4.0
#
DISCID=fb0d6014
DTITLE=Simon and Garfunkel - The definitive Simon and Garfunkel
DYEAR=1900
DGENRE=
TTITLE0=Wednesday Morning, 3.am
TTITLE1=The Sound Of Silence
TTITLE2=Homewerd Bound
TTITLE3=Kathy's Song
TTITLE4=I Am A Rock
TTITLE5=For Emliy, Whenever I May Find Her
TTITLE6=Scarborough Fair/Canticle
TTITLE7=The 59th Street Bridge Song
TTITLE8=Seven O'Clock New/Silent Night
TTITLE9=A Hazy Shade Of Winter
TTITLE10=El Condor Pasa (If I Could)
TTITLE11=Mrs. Robinson
TTITLE12=America
TTITLE13=At The Zoo
TTITLE14=Old Friends
TTITLE15=Bookends Theme
TTITLE16=Cecilia
TTITLE17=The Boxer
TTITLE18=Bridge Over Trouble Water
TTITLE19=Song For The Asking
EXTD=
EXTT0=
EXTT1=
EXTT2=
EXTT3=
EXTT4=
EXTT5=
EXTT6=
EXTT7=
EXTT8=
EXTT9=
EXTT10=
EXTT11=
EXTT12=
EXTT13=
EXTT14=
EXTT15=
EXTT16=
EXTT17=
EXTT18=
EXTT19=
PLAYORDER=
